<svg width="900" height="650" viewBox="0 0 900 650" fill="none" xmlns="http://www.w3.org/2000/svg">
<rect width="900" height="650" rx="36" fill="#F5F5F7"/>
<ellipse cx="450" cy="565" rx="330" ry="38" fill="#D9D9DE"/>
<g filter="url(#shadow)">
  <path d="M156 226C156 202 175 183 199 183H364C388 183 407 202 407 226V496C407 520 388 539 364 539H199C175 539 156 520 156 496V226Z" fill="#C6D8CF"/>
  <rect x="179" y="205" width="205" height="24" rx="12" fill="#1D1D1F"/>
  <path d="M196 255H367V478C367 497 352 512 333 512H230C211 512 196 497 196 478V255Z" fill="#DDEAE3"/>
  <text x="281" y="372" text-anchor="middle" fill="#1D1D1F" font-size="31" font-family="Arial" font-weight="700">G&amp;J</text>
</g>
<g filter="url(#shadow)">
  <path d="M334 148C334 121 356 99 383 99H590C617 99 639 121 639 148V500C639 527 617 549 590 549H383C356 549 334 527 334 500V148Z" fill="#E4D7C5"/>
  <rect x="361" y="124" width="251" height="27" rx="13.5" fill="#1D1D1F"/>
  <path d="M382 180H591V478C591 501 572 520 549 520H424C401 520 382 501 382 478V180Z" fill="#F1E8DC"/>
  <text x="486" y="351" text-anchor="middle" fill="#1D1D1F" font-size="38" font-family="Arial" font-weight="700">G&amp;J</text>
</g>
<g filter="url(#shadow)">
  <path d="M565 249C565 227 583 209 605 209H743C765 209 783 227 783 249V503C783 525 765 543 743 543H605C583 543 565 525 565 503V249Z" fill="#CCD8E6"/>
  <rect x="586" y="230" width="176" height="22" rx="11" fill="#1D1D1F"/>
  <path d="M602 276H746V485C746 503 731 518 713 518H635C617 518 602 503 602 485V276Z" fill="#E2EAF3"/>
  <text x="674" y="381" text-anchor="middle" fill="#1D1D1F" font-size="27" font-family="Arial" font-weight="700">G&amp;J</text>
</g>
<defs><filter id="shadow" x="-20%" y="-20%" width="140%" height="150%"><feDropShadow dx="0" dy="18" stdDeviation="18" flood-color="#000" flood-opacity=".16"/></filter></defs>
</svg>
